<svg width="88" height="88" viewBox="0 0 88 88" fill="none" xmlns="http://www.w3.org/2000/svg">
<rect x="44.1335" y="1" width="61" height="61" transform="rotate(45 44.1335 1)" fill="#1D3557"/>
<path d="M44.2105 0L2.45413e-05 44.2105L43.7892 87.9996L87.9997 43.7892L44.2105 0ZM43.8173 82.133L34.7943 73.11L37.8525 70.0519L43.8463 76.0457L76.0457 43.8463L67.1553 34.9559L64.2079 37.9033L70.179 43.8744L58.3098 55.7437L55.2351 52.669L64.0003 43.9039L44.0956 23.9992L23.9993 44.0955L34.1947 54.2909L37.1421 51.3435L29.866 44.0674L44.0675 29.8659L52.2068 38.0051L49.1701 41.0418L44.0386 35.9103L35.9103 44.0386L43.9611 52.0894L46.9085 49.142L41.777 44.0105L44.0106 41.7769L49.1421 46.9084L55.1261 40.9244L58.1338 43.9322L43.9323 58.1337L40.6708 54.8723L37.7235 57.8196L43.9042 64.0004L52.2879 55.6166L55.3626 58.6912L43.8747 70.1791L17.8207 44.1252L22.9901 38.9558L20.0707 36.0364L11.954 44.1532L34.9333 67.1325L31.8751 70.1906L5.86678 44.1823L33.004 17.0451L36.033 20.0741L23.2649 32.8423L26.1841 35.7615L44.1251 17.8204L61.1661 34.8614L64.1135 31.914L44.1533 11.9539L38.9804 17.1268L35.9514 14.0977L44.1824 5.86667L82.1329 43.8172L43.8172 82.1329L43.8173 82.133Z" fill="#EEEEFA" stroke="#EEEEFA" stroke-width="0.00199999"/>
<rect x="18.9999" y="31" width="51" height="26" fill="#1D3557"/>
<path d="M68.8737 31.194H20.3581V55.6628H68.8737V31.194Z" stroke="#EEEEFA" stroke-width="2" stroke-linecap="round" stroke-linejoin="round"/>
<path d="M67.3989 31.194L47.6972 40.3888" stroke="#EEEEFA" stroke-width="2" stroke-linecap="round" stroke-linejoin="round"/>
<path d="M53.3099 40.9734L68.6516 33.8131" stroke="#EEEEFA" stroke-width="2" stroke-linecap="round" stroke-linejoin="round"/>
<path d="M21.8329 55.6628L41.4904 46.4888" stroke="#EEEEFA" stroke-width="2" stroke-linecap="round" stroke-linejoin="round"/>
<path d="M36.0394 45.8291L20.5414 53.0618" stroke="#EEEEFA" stroke-width="2" stroke-linecap="round" stroke-linejoin="round"/>
<path d="M68.6613 53.0483L52.9778 45.7285" stroke="#EEEEFA" stroke-width="2" stroke-linecap="round" stroke-linejoin="round"/>
<path d="M47.5376 46.3937L67.3988 55.6628" stroke="#EEEEFA" stroke-width="2" stroke-linecap="round" stroke-linejoin="round"/>
<path d="M20.7699 33.9019L36.103 41.0577" stroke="#EEEEFA" stroke-width="2" stroke-linecap="round" stroke-linejoin="round"/>
<path d="M41.4904 40.368L21.8329 31.194" stroke="#EEEEFA" stroke-width="2" stroke-linecap="round" stroke-linejoin="round"/>
<path d="M68.4522 41.1628H47.3112V31.5221" stroke="#EEEEFA" stroke-width="2" stroke-linecap="round" stroke-linejoin="round"/>
<path d="M47.3112 55.4208V45.694H68.4522" stroke="#EEEEFA" stroke-width="2" stroke-linecap="round" stroke-linejoin="round"/>
<path d="M20.7699 45.694H41.9206V55.4208" stroke="#EEEEFA" stroke-width="2" stroke-linecap="round" stroke-linejoin="round"/>
<path d="M41.9206 31.4686V41.1628H20.7699" stroke="#EEEEFA" stroke-width="2" stroke-linecap="round" stroke-linejoin="round"/>
</svg>
